<?xml version="1.0" encoding="UTF-8"?>
<svg width="21px" height="18px" viewBox="0 0 21 18" version="1.1" xmlns="http://www.w3.org/2000/svg" xmlns:xlink="http://www.w3.org/1999/xlink">
    <!-- Generator: Sketch 48.2 (47327) - http://www.bohemiancoding.com/sketch -->
    <title>Fill 1</title>
    <desc>Created with Sketch.</desc>
    <defs></defs>
    <g id="V6" stroke="none" stroke-width="1" fill="none" fill-rule="evenodd" transform="translate(-494.000000, -852.000000)">
        <g id="subscribe-section" transform="translate(0.000000, 599.000000)" fill="#FFFFFF">
            <g id="join-telegram-button" transform="translate(466.000000, 242.000000)">
                <path d="M34.6020247,20.3584187 L43.8097037,14.6873926 C43.9748974,14.5859721 44.1453649,14.8097462 44.0030517,14.9415928 L36.4041444,22.0049189 C36.1369624,22.2533585 35.9648722,22.5865044 35.9160281,22.9474801 L35.6571219,24.8658682 C35.6228824,25.1220157 35.2631237,25.1473303 35.192454,24.8994587 L34.1969919,21.4014266 C34.0829142,21.002398 34.2489192,20.5761076 34.6020247,20.3584187 M28.3611778,19.5359394 L33.0724419,21.2943266 L34.8958194,27.1589441 C35.0124935,27.5341998 35.4720499,27.6733487 35.7766358,27.4239355 L38.4027765,25.2833148 C38.6781533,25.0585671 39.0702042,25.0478571 39.3576703,25.2563776 L44.0946547,28.6955046 C44.4204983,28.9322605 44.8825699,28.7537605 44.9643553,28.3598435 L48.4341519,11.669201 C48.5235642,11.2387726 48.1007626,10.879663 47.6909428,11.0382035 L28.3554983,18.4973128 C27.8784976,18.6811678 27.8826356,19.3568714 28.3611778,19.5359394" id="Fill-1"></path>
            </g>
        </g>
    </g>
</svg>